<mxfile host="app.diagrams.net" modified="2022-06-23T11:35:15.816Z" agent="5.0 (Windows NT 10.0; Win64; x64) AppleWebKit/537.36 (KHTML, like Gecko) Chrome/102.0.0.0 Safari/537.36" etag="Tt5iWghss0cPYABIeMnx" version="20.0.1" type="github">
  <diagram id="bL4Vz2KgEWLlNHWGLKTd" name="Page-1">
    <mxGraphModel dx="1422" dy="839" grid="1" gridSize="10" guides="1" tooltips="1" connect="1" arrows="1" fold="1" page="1" pageScale="1" pageWidth="2339" pageHeight="3300" math="0" shadow="0">
      <root>
        <mxCell id="0" />
        <mxCell id="1" parent="0" />
        <mxCell id="254oFtnbG1OvKKi7Jezg-3" value="" style="rounded=0;whiteSpace=wrap;html=1;sketch=0;fontSize=18;dashed=1;fillColor=#d5e8d4;strokeColor=#82b366;shadow=0;" vertex="1" parent="1">
          <mxGeometry x="450" y="130" width="590" height="160" as="geometry" />
        </mxCell>
        <mxCell id="254oFtnbG1OvKKi7Jezg-1" value="&lt;font style=&quot;font-size: 18px;&quot;&gt;&lt;b&gt;&lt;i&gt;用户应用&lt;/i&gt;&lt;/b&gt;&lt;/font&gt;" style="rounded=1;whiteSpace=wrap;html=1;fillColor=#cdeb8b;strokeColor=#36393d;sketch=1;" vertex="1" parent="1">
          <mxGeometry x="560" y="150" width="430" height="50" as="geometry" />
        </mxCell>
        <mxCell id="254oFtnbG1OvKKi7Jezg-25" value="" style="edgeStyle=orthogonalEdgeStyle;rounded=0;orthogonalLoop=1;jettySize=auto;html=1;fontSize=18;entryX=0.739;entryY=-0.004;entryDx=0;entryDy=0;entryPerimeter=0;" edge="1" parent="1" source="254oFtnbG1OvKKi7Jezg-2" target="254oFtnbG1OvKKi7Jezg-6">
          <mxGeometry relative="1" as="geometry" />
        </mxCell>
        <mxCell id="254oFtnbG1OvKKi7Jezg-2" value="&lt;span style=&quot;font-size: 18px;&quot;&gt;&lt;b&gt;&lt;i&gt;共享库&lt;/i&gt;&lt;/b&gt;&lt;/span&gt;" style="rounded=1;whiteSpace=wrap;html=1;fillColor=#cdeb8b;strokeColor=#36393d;sketch=1;" vertex="1" parent="1">
          <mxGeometry x="781" y="230" width="210" height="40" as="geometry" />
        </mxCell>
        <mxCell id="254oFtnbG1OvKKi7Jezg-5" value="&lt;b&gt;&lt;i&gt;用户空间&lt;/i&gt;&lt;/b&gt;" style="text;html=1;align=center;verticalAlign=middle;resizable=0;points=[];autosize=1;strokeColor=none;fillColor=none;fontSize=18;" vertex="1" parent="1">
          <mxGeometry x="455" y="260" width="90" height="30" as="geometry" />
        </mxCell>
        <mxCell id="254oFtnbG1OvKKi7Jezg-6" value="" style="rounded=0;whiteSpace=wrap;html=1;sketch=0;fontSize=18;dashed=1;fillColor=#FFF3F0;strokeColor=#b85450;shadow=0;" vertex="1" parent="1">
          <mxGeometry x="450" y="310" width="590" height="250" as="geometry" />
        </mxCell>
        <mxCell id="254oFtnbG1OvKKi7Jezg-7" value="&lt;font style=&quot;font-size: 18px;&quot;&gt;&lt;b&gt;&lt;i&gt;系统调用接口&lt;/i&gt;&lt;/b&gt;&lt;/font&gt;" style="rounded=1;whiteSpace=wrap;html=1;fillColor=#F8D9D8;strokeColor=#b85450;sketch=0;" vertex="1" parent="1">
          <mxGeometry x="545" y="320" width="430" height="40" as="geometry" />
        </mxCell>
        <mxCell id="254oFtnbG1OvKKi7Jezg-9" value="&lt;b&gt;&lt;i&gt;内核空间&lt;/i&gt;&lt;/b&gt;" style="text;html=1;align=center;verticalAlign=middle;resizable=0;points=[];autosize=1;strokeColor=none;fillColor=none;fontSize=18;" vertex="1" parent="1">
          <mxGeometry x="450" y="513" width="90" height="30" as="geometry" />
        </mxCell>
        <mxCell id="254oFtnbG1OvKKi7Jezg-10" value="&lt;font style=&quot;font-size: 18px;&quot;&gt;&lt;b&gt;&lt;i&gt;内存管理&lt;/i&gt;&lt;/b&gt;&lt;/font&gt;&lt;span style=&quot;color: rgba(0, 0, 0, 0); font-family: monospace; font-size: 0px; text-align: start;&quot;&gt;%3CmxGraphModel%3E%3Croot%3E%3CmxCell%20id%3D%220%22%2F%3E%3CmxCell%20id%3D%221%22%20parent%3D%220%22%2F%3E%3CmxCell%20id%3D%222%22%20value%3D%22%26lt%3Bfont%20style%3D%26quot%3Bfont-size%3A%2018px%3B%26quot%3B%26gt%3B%26lt%3Bb%26gt%3B%26lt%3Bi%26gt%3B%E7%B3%BB%E7%BB%9F%E8%B0%83%E7%94%A8%E6%8E%A5%E5%8F%A3%26lt%3B%2Fi%26gt%3B%26lt%3B%2Fb%26gt%3B%26lt%3B%2Ffont%26gt%3B%22%20style%3D%22rounded%3D1%3BwhiteSpace%3Dwrap%3Bhtml%3D1%3BfillColor%3D%23F8D9D8%3BstrokeColor%3D%23b85450%3Bsketch%3D0%3B%22%20vertex%3D%221%22%20parent%3D%221%22%3E%3CmxGeometry%20x%3D%22405%22%20y%3D%22360%22%20width%3D%22430%22%20height%3D%2240%22%20as%3D%22geometry%22%2F%3E%3C%2FmxCell%3E%3C%2Froot%3E%3C%2FmxGraphModel%3E&lt;/span&gt;" style="rounded=1;whiteSpace=wrap;html=1;fillColor=#F8F0EC;strokeColor=#b85450;sketch=0;" vertex="1" parent="1">
          <mxGeometry x="545" y="380" width="170" height="40" as="geometry" />
        </mxCell>
        <mxCell id="254oFtnbG1OvKKi7Jezg-11" value="&lt;font style=&quot;font-size: 18px;&quot;&gt;&lt;b&gt;&lt;i&gt;进程管理&lt;/i&gt;&lt;/b&gt;&lt;/font&gt;&lt;span style=&quot;color: rgba(0, 0, 0, 0); font-family: monospace; font-size: 0px; text-align: start;&quot;&gt;%3CmxGraphModel%3E%3Croot%3E%3CmxCell%20id%3D%220%22%2F%3E%3CmxCell%20id%3D%221%22%20parent%3D%220%22%2F%3E%3CmxCell%20id%3D%222%22%20value%3D%22%26lt%3Bfont%20style%3D%26quot%3Bfont-size%3A%2018px%3B%26quot%3B%26gt%3B%26lt%3Bb%26gt%3B%26lt%3Bi%26gt%3B%E7%B3%BB%E7%BB%9F%E8%B0%83%E7%94%A8%E6%8E%A5%E5%8F%A3%26lt%3B%2Fi%26gt%3B%26lt%3B%2Fb%26gt%3B%26lt%3B%2Ffont%26gt%3B%22%20style%3D%22rounded%3D1%3BwhiteSpace%3Dwrap%3Bhtml%3D1%3BfillColor%3D%23F8D9D8%3BstrokeColor%3D%23b85450%3Bsketch%3D0%3B%22%20vertex%3D%221%22%20parent%3D%221%22%3E%3CmxGeometry%20x%3D%22405%22%20y%3D%22360%22%20width%3D%22430%22%20height%3D%2240%22%20as%3D%22geometry%22%2F%3E%3C%2FmxCell%3E%3C%2Froot%3E%3C%2FmxGraphModel%3E&lt;/span&gt;" style="rounded=1;whiteSpace=wrap;html=1;fillColor=#F8F0EC;strokeColor=#b85450;sketch=0;" vertex="1" parent="1">
          <mxGeometry x="545" y="435" width="170" height="40" as="geometry" />
        </mxCell>
        <mxCell id="254oFtnbG1OvKKi7Jezg-12" value="&lt;span style=&quot;font-size: 18px;&quot;&gt;&lt;b&gt;&lt;i&gt;虚拟文件系统&lt;/i&gt;&lt;/b&gt;&lt;/span&gt;" style="rounded=1;whiteSpace=wrap;html=1;fillColor=#F8F0EC;strokeColor=#b85450;sketch=0;" vertex="1" parent="1">
          <mxGeometry x="780" y="380" width="170" height="40" as="geometry" />
        </mxCell>
        <mxCell id="254oFtnbG1OvKKi7Jezg-13" value="&lt;span style=&quot;font-size: 18px;&quot;&gt;&lt;b&gt;&lt;i&gt;网络堆栈&lt;/i&gt;&lt;/b&gt;&lt;/span&gt;" style="rounded=1;whiteSpace=wrap;html=1;fillColor=#F8F0EC;strokeColor=#b85450;sketch=0;" vertex="1" parent="1">
          <mxGeometry x="780" y="435" width="120" height="40" as="geometry" />
        </mxCell>
        <mxCell id="254oFtnbG1OvKKi7Jezg-14" value="&lt;span style=&quot;font-size: 18px;&quot;&gt;&lt;b&gt;&lt;i&gt;...&lt;/i&gt;&lt;/b&gt;&lt;/span&gt;" style="rounded=1;whiteSpace=wrap;html=1;fillColor=#F8F0EC;strokeColor=#b85450;sketch=0;" vertex="1" parent="1">
          <mxGeometry x="910" y="435" width="50" height="40" as="geometry" />
        </mxCell>
        <mxCell id="254oFtnbG1OvKKi7Jezg-15" value="&lt;span style=&quot;font-size: 18px;&quot;&gt;&lt;b&gt;&lt;i&gt;设备驱动器&lt;/i&gt;&lt;/b&gt;&lt;/span&gt;" style="rounded=1;whiteSpace=wrap;html=1;fillColor=#F8D9D8;strokeColor=#b85450;sketch=0;" vertex="1" parent="1">
          <mxGeometry x="540" y="500" width="430" height="40" as="geometry" />
        </mxCell>
        <mxCell id="254oFtnbG1OvKKi7Jezg-16" value="" style="rounded=0;whiteSpace=wrap;html=1;sketch=0;fontSize=18;dashed=1;fillColor=#f5f5f5;strokeColor=#666666;shadow=0;fontColor=#333333;" vertex="1" parent="1">
          <mxGeometry x="450" y="590" width="590" height="60" as="geometry" />
        </mxCell>
        <mxCell id="254oFtnbG1OvKKi7Jezg-18" value="&lt;span style=&quot;font-size: 18px;&quot;&gt;&lt;b&gt;&lt;i&gt;CPU&lt;/i&gt;&lt;/b&gt;&lt;/span&gt;" style="rounded=1;whiteSpace=wrap;html=1;fillColor=#f5f5f5;strokeColor=#666666;sketch=1;fontColor=#333333;" vertex="1" parent="1">
          <mxGeometry x="540" y="600" width="80" height="40" as="geometry" />
        </mxCell>
        <mxCell id="254oFtnbG1OvKKi7Jezg-19" value="&lt;b&gt;&lt;i&gt;硬件&lt;/i&gt;&lt;/b&gt;" style="text;html=1;align=center;verticalAlign=middle;resizable=0;points=[];autosize=1;strokeColor=none;fillColor=none;fontSize=18;" vertex="1" parent="1">
          <mxGeometry x="455" y="620" width="50" height="30" as="geometry" />
        </mxCell>
        <mxCell id="254oFtnbG1OvKKi7Jezg-20" value="&lt;span style=&quot;font-size: 18px;&quot;&gt;&lt;b&gt;&lt;i&gt;内存&lt;/i&gt;&lt;/b&gt;&lt;/span&gt;" style="rounded=1;whiteSpace=wrap;html=1;fillColor=#f5f5f5;strokeColor=#666666;sketch=1;fontColor=#333333;" vertex="1" parent="1">
          <mxGeometry x="640" y="600" width="80" height="40" as="geometry" />
        </mxCell>
        <mxCell id="254oFtnbG1OvKKi7Jezg-21" value="&lt;span style=&quot;font-size: 18px;&quot;&gt;&lt;b&gt;&lt;i&gt;网卡&lt;/i&gt;&lt;/b&gt;&lt;/span&gt;" style="rounded=1;whiteSpace=wrap;html=1;fillColor=#f5f5f5;strokeColor=#666666;sketch=1;fontColor=#333333;" vertex="1" parent="1">
          <mxGeometry x="740" y="600" width="80" height="40" as="geometry" />
        </mxCell>
        <mxCell id="254oFtnbG1OvKKi7Jezg-22" value="&lt;span style=&quot;font-size: 18px;&quot;&gt;&lt;b&gt;&lt;i&gt;...&lt;/i&gt;&lt;/b&gt;&lt;/span&gt;" style="rounded=1;whiteSpace=wrap;html=1;fillColor=#f5f5f5;strokeColor=#666666;sketch=1;fontColor=#333333;" vertex="1" parent="1">
          <mxGeometry x="850" y="600" width="80" height="40" as="geometry" />
        </mxCell>
        <mxCell id="254oFtnbG1OvKKi7Jezg-23" value="" style="endArrow=classic;html=1;rounded=0;fontSize=18;entryX=0.25;entryY=0;entryDx=0;entryDy=0;" edge="1" parent="1">
          <mxGeometry width="50" height="50" relative="1" as="geometry">
            <mxPoint x="626" y="200" as="sourcePoint" />
            <mxPoint x="625.5" y="310" as="targetPoint" />
          </mxGeometry>
        </mxCell>
        <mxCell id="254oFtnbG1OvKKi7Jezg-26" value="" style="edgeStyle=orthogonalEdgeStyle;rounded=0;orthogonalLoop=1;jettySize=auto;html=1;fontSize=18;" edge="1" parent="1" target="254oFtnbG1OvKKi7Jezg-18">
          <mxGeometry relative="1" as="geometry">
            <mxPoint x="580" y="540" as="sourcePoint" />
            <mxPoint x="580" y="579" as="targetPoint" />
            <Array as="points" />
          </mxGeometry>
        </mxCell>
        <mxCell id="254oFtnbG1OvKKi7Jezg-27" value="" style="edgeStyle=orthogonalEdgeStyle;rounded=0;orthogonalLoop=1;jettySize=auto;html=1;fontSize=18;" edge="1" parent="1">
          <mxGeometry relative="1" as="geometry">
            <mxPoint x="679.66" y="543" as="sourcePoint" />
            <mxPoint x="679.66" y="603" as="targetPoint" />
            <Array as="points" />
          </mxGeometry>
        </mxCell>
        <mxCell id="254oFtnbG1OvKKi7Jezg-28" value="" style="edgeStyle=orthogonalEdgeStyle;rounded=0;orthogonalLoop=1;jettySize=auto;html=1;fontSize=18;" edge="1" parent="1">
          <mxGeometry relative="1" as="geometry">
            <mxPoint x="781" y="540" as="sourcePoint" />
            <mxPoint x="781" y="600" as="targetPoint" />
            <Array as="points" />
          </mxGeometry>
        </mxCell>
        <mxCell id="254oFtnbG1OvKKi7Jezg-29" value="" style="edgeStyle=orthogonalEdgeStyle;rounded=0;orthogonalLoop=1;jettySize=auto;html=1;fontSize=18;" edge="1" parent="1">
          <mxGeometry relative="1" as="geometry">
            <mxPoint x="889.6600000000001" y="540" as="sourcePoint" />
            <mxPoint x="889.6600000000001" y="600" as="targetPoint" />
            <Array as="points" />
          </mxGeometry>
        </mxCell>
        <mxCell id="254oFtnbG1OvKKi7Jezg-30" value="" style="rounded=0;whiteSpace=wrap;html=1;sketch=0;fontSize=18;dashed=1;fillColor=#d5e8d4;strokeColor=#82b366;shadow=0;" vertex="1" parent="1">
          <mxGeometry x="120" y="310" width="190" height="250" as="geometry" />
        </mxCell>
        <mxCell id="254oFtnbG1OvKKi7Jezg-31" value="" style="rounded=0;whiteSpace=wrap;html=1;sketch=0;fontSize=18;dashed=1;fillColor=#FFF3F0;strokeColor=#b85450;shadow=0;" vertex="1" parent="1">
          <mxGeometry x="120" y="170" width="190" height="140" as="geometry" />
        </mxCell>
        <mxCell id="254oFtnbG1OvKKi7Jezg-32" value="&lt;b&gt;&lt;i&gt;用户空间&lt;/i&gt;&lt;/b&gt;" style="text;html=1;align=center;verticalAlign=middle;resizable=0;points=[];autosize=1;strokeColor=none;fillColor=none;fontSize=18;" vertex="1" parent="1">
          <mxGeometry x="170" y="420" width="90" height="30" as="geometry" />
        </mxCell>
        <mxCell id="254oFtnbG1OvKKi7Jezg-33" value="&lt;b&gt;&lt;i&gt;内核空间&lt;/i&gt;&lt;/b&gt;" style="text;html=1;align=center;verticalAlign=middle;resizable=0;points=[];autosize=1;strokeColor=none;fillColor=none;fontSize=18;" vertex="1" parent="1">
          <mxGeometry x="170" y="225" width="90" height="30" as="geometry" />
        </mxCell>
        <mxCell id="254oFtnbG1OvKKi7Jezg-34" value="&lt;b&gt;&lt;i&gt;0&lt;/i&gt;&lt;/b&gt;" style="text;html=1;align=center;verticalAlign=middle;resizable=0;points=[];autosize=1;strokeColor=none;fillColor=none;fontSize=18;" vertex="1" parent="1">
          <mxGeometry x="55" y="530" width="30" height="30" as="geometry" />
        </mxCell>
        <mxCell id="254oFtnbG1OvKKi7Jezg-35" value="&lt;b&gt;&lt;i&gt;3GB-1&lt;/i&gt;&lt;/b&gt;" style="text;html=1;align=center;verticalAlign=middle;resizable=0;points=[];autosize=1;strokeColor=none;fillColor=none;fontSize=18;" vertex="1" parent="1">
          <mxGeometry x="35" y="300" width="70" height="30" as="geometry" />
        </mxCell>
        <mxCell id="254oFtnbG1OvKKi7Jezg-36" value="&lt;b&gt;&lt;i&gt;4GB-1&lt;/i&gt;&lt;/b&gt;" style="text;html=1;align=center;verticalAlign=middle;resizable=0;points=[];autosize=1;strokeColor=none;fillColor=none;fontSize=18;" vertex="1" parent="1">
          <mxGeometry x="35" y="160" width="70" height="30" as="geometry" />
        </mxCell>
        <mxCell id="254oFtnbG1OvKKi7Jezg-37" value="" style="shape=link;html=1;rounded=0;fontSize=18;" edge="1" parent="1">
          <mxGeometry width="100" relative="1" as="geometry">
            <mxPoint x="120" y="310" as="sourcePoint" />
            <mxPoint x="360" y="310" as="targetPoint" />
          </mxGeometry>
        </mxCell>
        <mxCell id="254oFtnbG1OvKKi7Jezg-38" value="" style="shape=link;html=1;rounded=0;fontSize=18;" edge="1" parent="1">
          <mxGeometry width="100" relative="1" as="geometry">
            <mxPoint x="120" y="559.17" as="sourcePoint" />
            <mxPoint x="360" y="559.17" as="targetPoint" />
          </mxGeometry>
        </mxCell>
        <mxCell id="254oFtnbG1OvKKi7Jezg-39" value="" style="shape=link;html=1;rounded=0;fontSize=18;" edge="1" parent="1">
          <mxGeometry width="100" relative="1" as="geometry">
            <mxPoint x="120" y="170" as="sourcePoint" />
            <mxPoint x="360" y="170" as="targetPoint" />
          </mxGeometry>
        </mxCell>
        <mxCell id="254oFtnbG1OvKKi7Jezg-40" value="&lt;b&gt;&lt;i&gt;内核态&lt;/i&gt;&lt;/b&gt;" style="text;html=1;align=center;verticalAlign=middle;resizable=0;points=[];autosize=1;strokeColor=none;fillColor=none;fontSize=18;" vertex="1" parent="1">
          <mxGeometry x="320" y="230" width="70" height="30" as="geometry" />
        </mxCell>
        <mxCell id="254oFtnbG1OvKKi7Jezg-41" value="&lt;b&gt;&lt;i&gt;用户态&lt;/i&gt;&lt;/b&gt;" style="text;html=1;align=center;verticalAlign=middle;resizable=0;points=[];autosize=1;strokeColor=none;fillColor=none;fontSize=18;" vertex="1" parent="1">
          <mxGeometry x="320" y="420" width="70" height="30" as="geometry" />
        </mxCell>
        <mxCell id="254oFtnbG1OvKKi7Jezg-42" value="" style="endArrow=classic;html=1;rounded=0;fontSize=18;" edge="1" parent="1">
          <mxGeometry width="50" height="50" relative="1" as="geometry">
            <mxPoint x="330" y="560" as="sourcePoint" />
            <mxPoint x="330" y="310" as="targetPoint" />
          </mxGeometry>
        </mxCell>
        <mxCell id="254oFtnbG1OvKKi7Jezg-43" value="" style="endArrow=classic;html=1;rounded=0;fontSize=18;" edge="1" parent="1">
          <mxGeometry width="50" height="50" relative="1" as="geometry">
            <mxPoint x="330" y="310" as="sourcePoint" />
            <mxPoint x="330" y="170" as="targetPoint" />
          </mxGeometry>
        </mxCell>
        <mxCell id="254oFtnbG1OvKKi7Jezg-44" value="" style="rounded=0;whiteSpace=wrap;html=1;sketch=0;fontSize=18;dashed=1;fillColor=#d5e8d4;strokeColor=#82b366;shadow=0;" vertex="1" parent="1">
          <mxGeometry x="160" y="890" width="590" height="160" as="geometry" />
        </mxCell>
        <mxCell id="254oFtnbG1OvKKi7Jezg-45" value="&lt;font style=&quot;font-size: 18px;&quot;&gt;&lt;b&gt;&lt;i&gt;用户应用&lt;/i&gt;&lt;/b&gt;&lt;/font&gt;" style="rounded=1;whiteSpace=wrap;html=1;fillColor=#cdeb8b;strokeColor=#36393d;sketch=1;" vertex="1" parent="1">
          <mxGeometry x="270" y="910" width="430" height="50" as="geometry" />
        </mxCell>
        <mxCell id="254oFtnbG1OvKKi7Jezg-47" value="&lt;span style=&quot;font-size: 18px;&quot;&gt;&lt;b&gt;&lt;i&gt;用户空间缓冲区&lt;/i&gt;&lt;/b&gt;&lt;/span&gt;" style="rounded=1;whiteSpace=wrap;html=1;fillColor=#cdeb8b;strokeColor=#36393d;sketch=1;" vertex="1" parent="1">
          <mxGeometry x="491" y="990" width="210" height="40" as="geometry" />
        </mxCell>
        <mxCell id="254oFtnbG1OvKKi7Jezg-48" value="&lt;b&gt;&lt;i&gt;用户空间&lt;/i&gt;&lt;/b&gt;" style="text;html=1;align=center;verticalAlign=middle;resizable=0;points=[];autosize=1;strokeColor=none;fillColor=none;fontSize=18;" vertex="1" parent="1">
          <mxGeometry x="155" y="980" width="90" height="30" as="geometry" />
        </mxCell>
        <mxCell id="254oFtnbG1OvKKi7Jezg-49" value="" style="rounded=0;whiteSpace=wrap;html=1;sketch=0;fontSize=18;dashed=1;fillColor=#FFF3F0;strokeColor=#b85450;shadow=0;" vertex="1" parent="1">
          <mxGeometry x="160" y="1070" width="590" height="230" as="geometry" />
        </mxCell>
        <mxCell id="254oFtnbG1OvKKi7Jezg-50" value="&lt;font style=&quot;font-size: 18px;&quot;&gt;&lt;b&gt;&lt;i&gt;系统调用接口&lt;/i&gt;&lt;/b&gt;&lt;/font&gt;" style="rounded=1;whiteSpace=wrap;html=1;fillColor=#F8D9D8;strokeColor=#b85450;sketch=0;" vertex="1" parent="1">
          <mxGeometry x="255" y="1080" width="430" height="40" as="geometry" />
        </mxCell>
        <mxCell id="254oFtnbG1OvKKi7Jezg-51" value="&lt;b&gt;&lt;i&gt;内核空间&lt;/i&gt;&lt;/b&gt;" style="text;html=1;align=center;verticalAlign=middle;resizable=0;points=[];autosize=1;strokeColor=none;fillColor=none;fontSize=18;" vertex="1" parent="1">
          <mxGeometry x="155" y="1160" width="90" height="30" as="geometry" />
        </mxCell>
        <mxCell id="254oFtnbG1OvKKi7Jezg-84" style="edgeStyle=orthogonalEdgeStyle;rounded=0;orthogonalLoop=1;jettySize=auto;html=1;entryX=0.5;entryY=1;entryDx=0;entryDy=0;fontSize=14;" edge="1" parent="1" source="254oFtnbG1OvKKi7Jezg-54" target="254oFtnbG1OvKKi7Jezg-47">
          <mxGeometry relative="1" as="geometry">
            <Array as="points">
              <mxPoint x="596" y="1100" />
              <mxPoint x="596" y="1100" />
            </Array>
          </mxGeometry>
        </mxCell>
        <mxCell id="254oFtnbG1OvKKi7Jezg-54" value="&lt;span style=&quot;font-size: 18px;&quot;&gt;&lt;b&gt;&lt;i&gt;内核空间缓冲区&lt;/i&gt;&lt;/b&gt;&lt;/span&gt;" style="rounded=1;whiteSpace=wrap;html=1;fillColor=#F8F0EC;strokeColor=#b85450;sketch=0;" vertex="1" parent="1">
          <mxGeometry x="490" y="1130" width="170" height="50" as="geometry" />
        </mxCell>
        <mxCell id="254oFtnbG1OvKKi7Jezg-57" value="&lt;span style=&quot;font-size: 18px;&quot;&gt;&lt;b&gt;&lt;i&gt;设备驱动器&lt;/i&gt;&lt;/b&gt;&lt;/span&gt;" style="rounded=1;whiteSpace=wrap;html=1;fillColor=#F8D9D8;strokeColor=#b85450;sketch=0;" vertex="1" parent="1">
          <mxGeometry x="255" y="1240" width="430" height="40" as="geometry" />
        </mxCell>
        <mxCell id="254oFtnbG1OvKKi7Jezg-58" value="" style="rounded=0;whiteSpace=wrap;html=1;sketch=0;fontSize=18;dashed=1;fillColor=#f5f5f5;strokeColor=#666666;shadow=0;fontColor=#333333;" vertex="1" parent="1">
          <mxGeometry x="160" y="1330" width="590" height="60" as="geometry" />
        </mxCell>
        <mxCell id="254oFtnbG1OvKKi7Jezg-59" value="&lt;span style=&quot;font-size: 18px;&quot;&gt;&lt;b&gt;&lt;i&gt;CPU&lt;/i&gt;&lt;/b&gt;&lt;/span&gt;" style="rounded=1;whiteSpace=wrap;html=1;fillColor=#f5f5f5;strokeColor=#666666;sketch=1;fontColor=#333333;" vertex="1" parent="1">
          <mxGeometry x="250" y="1340" width="80" height="40" as="geometry" />
        </mxCell>
        <mxCell id="254oFtnbG1OvKKi7Jezg-60" value="&lt;b&gt;&lt;i&gt;硬件&lt;/i&gt;&lt;/b&gt;" style="text;html=1;align=center;verticalAlign=middle;resizable=0;points=[];autosize=1;strokeColor=none;fillColor=none;fontSize=18;" vertex="1" parent="1">
          <mxGeometry x="160" y="1345" width="50" height="30" as="geometry" />
        </mxCell>
        <mxCell id="254oFtnbG1OvKKi7Jezg-61" value="&lt;span style=&quot;font-size: 18px;&quot;&gt;&lt;b&gt;&lt;i&gt;磁盘&lt;/i&gt;&lt;/b&gt;&lt;/span&gt;" style="rounded=1;whiteSpace=wrap;html=1;fillColor=#f5f5f5;strokeColor=#666666;sketch=1;fontColor=#333333;" vertex="1" parent="1">
          <mxGeometry x="350" y="1340" width="80" height="40" as="geometry" />
        </mxCell>
        <mxCell id="254oFtnbG1OvKKi7Jezg-70" value="" style="edgeStyle=orthogonalEdgeStyle;rounded=0;orthogonalLoop=1;jettySize=auto;html=1;fontSize=18;entryX=0.547;entryY=0.983;entryDx=0;entryDy=0;entryPerimeter=0;" edge="1" parent="1" source="254oFtnbG1OvKKi7Jezg-62" target="254oFtnbG1OvKKi7Jezg-57">
          <mxGeometry relative="1" as="geometry" />
        </mxCell>
        <mxCell id="254oFtnbG1OvKKi7Jezg-62" value="&lt;span style=&quot;font-size: 18px;&quot;&gt;&lt;b&gt;&lt;i&gt;网卡&lt;/i&gt;&lt;/b&gt;&lt;/span&gt;" style="rounded=1;whiteSpace=wrap;html=1;fillColor=#f5f5f5;strokeColor=#666666;sketch=1;fontColor=#333333;" vertex="1" parent="1">
          <mxGeometry x="450" y="1340" width="80" height="40" as="geometry" />
        </mxCell>
        <mxCell id="254oFtnbG1OvKKi7Jezg-63" value="&lt;span style=&quot;font-size: 18px;&quot;&gt;&lt;b&gt;&lt;i&gt;...&lt;/i&gt;&lt;/b&gt;&lt;/span&gt;" style="rounded=1;whiteSpace=wrap;html=1;fillColor=#f5f5f5;strokeColor=#666666;sketch=1;fontColor=#333333;" vertex="1" parent="1">
          <mxGeometry x="560" y="1340" width="80" height="40" as="geometry" />
        </mxCell>
        <mxCell id="254oFtnbG1OvKKi7Jezg-64" value="" style="endArrow=classic;html=1;rounded=0;fontSize=18;entryX=0.25;entryY=0;entryDx=0;entryDy=0;" edge="1" parent="1">
          <mxGeometry width="50" height="50" relative="1" as="geometry">
            <mxPoint x="336" y="960" as="sourcePoint" />
            <mxPoint x="335.5" y="1070" as="targetPoint" />
          </mxGeometry>
        </mxCell>
        <mxCell id="254oFtnbG1OvKKi7Jezg-69" value="&lt;b&gt;&lt;i&gt;Linux系统读取网络请求&lt;/i&gt;&lt;/b&gt;" style="text;html=1;align=center;verticalAlign=middle;resizable=0;points=[];autosize=1;strokeColor=none;fillColor=none;fontSize=18;" vertex="1" parent="1">
          <mxGeometry x="165" y="850" width="210" height="30" as="geometry" />
        </mxCell>
        <mxCell id="254oFtnbG1OvKKi7Jezg-71" value="&lt;b&gt;&lt;i&gt;&lt;font style=&quot;font-size: 14px;&quot;&gt;数据经过网络发送到网卡&lt;/font&gt;&lt;/i&gt;&lt;/b&gt;" style="text;html=1;align=center;verticalAlign=middle;resizable=0;points=[];autosize=1;strokeColor=none;fillColor=none;fontSize=18;" vertex="1" parent="1">
          <mxGeometry x="410" y="1400" width="170" height="30" as="geometry" />
        </mxCell>
        <mxCell id="254oFtnbG1OvKKi7Jezg-73" style="edgeStyle=orthogonalEdgeStyle;rounded=0;orthogonalLoop=1;jettySize=auto;html=1;fontSize=14;" edge="1" parent="1" source="254oFtnbG1OvKKi7Jezg-72" target="254oFtnbG1OvKKi7Jezg-62">
          <mxGeometry relative="1" as="geometry" />
        </mxCell>
        <mxCell id="254oFtnbG1OvKKi7Jezg-72" value="&lt;b&gt;&lt;i&gt;Network&lt;/i&gt;&lt;/b&gt;" style="ellipse;shape=cloud;whiteSpace=wrap;html=1;shadow=0;dashed=1;sketch=0;fontSize=14;fillColor=#F8F0EC;" vertex="1" parent="1">
          <mxGeometry x="220" y="1400" width="120" height="80" as="geometry" />
        </mxCell>
        <mxCell id="254oFtnbG1OvKKi7Jezg-74" value="&lt;i style=&quot;&quot;&gt;&lt;font color=&quot;#ff3333&quot; style=&quot;font-size: 14px;&quot;&gt;1.读数据，read&lt;/font&gt;&lt;/i&gt;" style="text;html=1;align=center;verticalAlign=middle;resizable=0;points=[];autosize=1;strokeColor=none;fillColor=none;fontSize=18;" vertex="1" parent="1">
          <mxGeometry x="270" y="990" width="110" height="30" as="geometry" />
        </mxCell>
        <mxCell id="254oFtnbG1OvKKi7Jezg-75" value="" style="endArrow=classic;html=1;rounded=0;fontSize=18;entryX=0.161;entryY=0.067;entryDx=0;entryDy=0;entryPerimeter=0;" edge="1" parent="1" target="254oFtnbG1OvKKi7Jezg-57">
          <mxGeometry width="50" height="50" relative="1" as="geometry">
            <mxPoint x="326" y="1120" as="sourcePoint" />
            <mxPoint x="325.5" y="1229.9999999999998" as="targetPoint" />
          </mxGeometry>
        </mxCell>
        <mxCell id="254oFtnbG1OvKKi7Jezg-76" value="&lt;i style=&quot;&quot;&gt;&lt;font color=&quot;#ff3333&quot; style=&quot;font-size: 14px;&quot;&gt;2.等待&lt;br&gt;数据&lt;br&gt;就绪&lt;/font&gt;&lt;/i&gt;" style="text;html=1;align=center;verticalAlign=middle;resizable=0;points=[];autosize=1;strokeColor=none;fillColor=none;fontSize=18;" vertex="1" parent="1">
          <mxGeometry x="270" y="1150" width="60" height="70" as="geometry" />
        </mxCell>
        <mxCell id="254oFtnbG1OvKKi7Jezg-81" style="edgeStyle=orthogonalEdgeStyle;rounded=0;orthogonalLoop=1;jettySize=auto;html=1;entryX=0;entryY=0.5;entryDx=0;entryDy=0;fontSize=14;exitX=0;exitY=0.5;exitDx=0;exitDy=0;" edge="1" parent="1" source="254oFtnbG1OvKKi7Jezg-77" target="254oFtnbG1OvKKi7Jezg-54">
          <mxGeometry relative="1" as="geometry">
            <Array as="points">
              <mxPoint x="450" y="1210" />
              <mxPoint x="450" y="1155" />
            </Array>
          </mxGeometry>
        </mxCell>
        <mxCell id="254oFtnbG1OvKKi7Jezg-77" value="&lt;span style=&quot;font-size: 18px;&quot;&gt;&lt;b&gt;&lt;i&gt;Network Stack&lt;/i&gt;&lt;/b&gt;&lt;/span&gt;" style="rounded=1;whiteSpace=wrap;html=1;fillColor=#F8F0EC;strokeColor=#b85450;sketch=0;" vertex="1" parent="1">
          <mxGeometry x="505" y="1190" width="140" height="40" as="geometry" />
        </mxCell>
        <mxCell id="254oFtnbG1OvKKi7Jezg-80" value="&lt;span style=&quot;font-size: 14px;&quot;&gt;&lt;i&gt;&lt;font color=&quot;#ff3333&quot;&gt;3.从网卡中读取数据，数据就绪&lt;/font&gt;&lt;/i&gt;&lt;/span&gt;" style="text;html=1;align=center;verticalAlign=middle;resizable=0;points=[];autosize=1;strokeColor=none;fillColor=none;fontSize=18;" vertex="1" parent="1">
          <mxGeometry x="350" y="1300" width="210" height="30" as="geometry" />
        </mxCell>
        <mxCell id="254oFtnbG1OvKKi7Jezg-82" value="&lt;span style=&quot;font-size: 14px;&quot;&gt;&lt;i&gt;&lt;font color=&quot;#ff3333&quot;&gt;4.将数据读取&lt;br&gt;至内核缓冲区&lt;/font&gt;&lt;/i&gt;&lt;/span&gt;" style="text;html=1;align=center;verticalAlign=middle;resizable=0;points=[];autosize=1;strokeColor=none;fillColor=none;fontSize=18;" vertex="1" parent="1">
          <mxGeometry x="350" y="1160" width="100" height="50" as="geometry" />
        </mxCell>
        <mxCell id="254oFtnbG1OvKKi7Jezg-83" value="&lt;span style=&quot;font-size: 14px;&quot;&gt;&lt;i&gt;&lt;font color=&quot;#ff3333&quot;&gt;5.将内核缓冲区中的数据拷贝到用户空间缓冲区&lt;/font&gt;&lt;/i&gt;&lt;/span&gt;" style="text;html=1;align=center;verticalAlign=middle;resizable=0;points=[];autosize=1;strokeColor=none;fillColor=none;fontSize=18;" vertex="1" parent="1">
          <mxGeometry x="441" y="1045" width="310" height="30" as="geometry" />
        </mxCell>
        <mxCell id="254oFtnbG1OvKKi7Jezg-85" value="&lt;b&gt;&lt;i&gt;Linux系统响应网络请求&lt;/i&gt;&lt;/b&gt;" style="text;html=1;align=center;verticalAlign=middle;resizable=0;points=[];autosize=1;strokeColor=none;fillColor=none;fontSize=18;" vertex="1" parent="1">
          <mxGeometry x="820" y="850" width="210" height="30" as="geometry" />
        </mxCell>
        <mxCell id="254oFtnbG1OvKKi7Jezg-86" value="" style="rounded=0;whiteSpace=wrap;html=1;sketch=0;fontSize=18;dashed=1;fillColor=#d5e8d4;strokeColor=#82b366;shadow=0;" vertex="1" parent="1">
          <mxGeometry x="835" y="890" width="590" height="160" as="geometry" />
        </mxCell>
        <mxCell id="254oFtnbG1OvKKi7Jezg-87" value="&lt;font style=&quot;font-size: 18px;&quot;&gt;&lt;b&gt;&lt;i&gt;用户应用&lt;/i&gt;&lt;/b&gt;&lt;/font&gt;" style="rounded=1;whiteSpace=wrap;html=1;fillColor=#cdeb8b;strokeColor=#36393d;sketch=1;" vertex="1" parent="1">
          <mxGeometry x="945" y="910" width="430" height="50" as="geometry" />
        </mxCell>
        <mxCell id="254oFtnbG1OvKKi7Jezg-88" value="&lt;span style=&quot;font-size: 18px;&quot;&gt;&lt;b&gt;&lt;i&gt;用户空间缓冲区&lt;/i&gt;&lt;/b&gt;&lt;/span&gt;" style="rounded=1;whiteSpace=wrap;html=1;fillColor=#cdeb8b;strokeColor=#36393d;sketch=1;" vertex="1" parent="1">
          <mxGeometry x="1166" y="990" width="210" height="40" as="geometry" />
        </mxCell>
        <mxCell id="254oFtnbG1OvKKi7Jezg-89" value="&lt;b&gt;&lt;i&gt;用户空间&lt;/i&gt;&lt;/b&gt;" style="text;html=1;align=center;verticalAlign=middle;resizable=0;points=[];autosize=1;strokeColor=none;fillColor=none;fontSize=18;" vertex="1" parent="1">
          <mxGeometry x="830" y="980" width="90" height="30" as="geometry" />
        </mxCell>
        <mxCell id="254oFtnbG1OvKKi7Jezg-90" value="" style="rounded=0;whiteSpace=wrap;html=1;sketch=0;fontSize=18;dashed=1;fillColor=#FFF3F0;strokeColor=#b85450;shadow=0;" vertex="1" parent="1">
          <mxGeometry x="835" y="1070" width="590" height="230" as="geometry" />
        </mxCell>
        <mxCell id="254oFtnbG1OvKKi7Jezg-91" value="&lt;font style=&quot;font-size: 18px;&quot;&gt;&lt;b&gt;&lt;i&gt;系统调用接口&lt;/i&gt;&lt;/b&gt;&lt;/font&gt;" style="rounded=1;whiteSpace=wrap;html=1;fillColor=#F8D9D8;strokeColor=#b85450;sketch=0;" vertex="1" parent="1">
          <mxGeometry x="930" y="1080" width="430" height="40" as="geometry" />
        </mxCell>
        <mxCell id="254oFtnbG1OvKKi7Jezg-92" value="&lt;b&gt;&lt;i&gt;内核空间&lt;/i&gt;&lt;/b&gt;" style="text;html=1;align=center;verticalAlign=middle;resizable=0;points=[];autosize=1;strokeColor=none;fillColor=none;fontSize=18;" vertex="1" parent="1">
          <mxGeometry x="830" y="1160" width="90" height="30" as="geometry" />
        </mxCell>
        <mxCell id="254oFtnbG1OvKKi7Jezg-93" style="edgeStyle=orthogonalEdgeStyle;rounded=0;orthogonalLoop=1;jettySize=auto;html=1;entryX=0.5;entryY=1;entryDx=0;entryDy=0;fontSize=14;endArrow=none;endFill=0;startArrow=classic;startFill=1;" edge="1" parent="1" source="254oFtnbG1OvKKi7Jezg-94" target="254oFtnbG1OvKKi7Jezg-88">
          <mxGeometry relative="1" as="geometry">
            <Array as="points">
              <mxPoint x="1271" y="1100" />
              <mxPoint x="1271" y="1100" />
            </Array>
          </mxGeometry>
        </mxCell>
        <mxCell id="254oFtnbG1OvKKi7Jezg-94" value="&lt;span style=&quot;font-size: 18px;&quot;&gt;&lt;b&gt;&lt;i&gt;内核空间缓冲区&lt;/i&gt;&lt;/b&gt;&lt;/span&gt;" style="rounded=1;whiteSpace=wrap;html=1;fillColor=#F8F0EC;strokeColor=#b85450;sketch=0;" vertex="1" parent="1">
          <mxGeometry x="1165" y="1130" width="170" height="50" as="geometry" />
        </mxCell>
        <mxCell id="254oFtnbG1OvKKi7Jezg-95" value="&lt;span style=&quot;font-size: 18px;&quot;&gt;&lt;b&gt;&lt;i&gt;设备驱动器&lt;/i&gt;&lt;/b&gt;&lt;/span&gt;" style="rounded=1;whiteSpace=wrap;html=1;fillColor=#F8D9D8;strokeColor=#b85450;sketch=0;" vertex="1" parent="1">
          <mxGeometry x="930" y="1240" width="430" height="40" as="geometry" />
        </mxCell>
        <mxCell id="254oFtnbG1OvKKi7Jezg-96" value="" style="rounded=0;whiteSpace=wrap;html=1;sketch=0;fontSize=18;dashed=1;fillColor=#f5f5f5;strokeColor=#666666;shadow=0;fontColor=#333333;" vertex="1" parent="1">
          <mxGeometry x="835" y="1330" width="590" height="60" as="geometry" />
        </mxCell>
        <mxCell id="254oFtnbG1OvKKi7Jezg-97" value="&lt;span style=&quot;font-size: 18px;&quot;&gt;&lt;b&gt;&lt;i&gt;CPU&lt;/i&gt;&lt;/b&gt;&lt;/span&gt;" style="rounded=1;whiteSpace=wrap;html=1;fillColor=#f5f5f5;strokeColor=#666666;sketch=1;fontColor=#333333;" vertex="1" parent="1">
          <mxGeometry x="925" y="1340" width="80" height="40" as="geometry" />
        </mxCell>
        <mxCell id="254oFtnbG1OvKKi7Jezg-98" value="&lt;b&gt;&lt;i&gt;硬件&lt;/i&gt;&lt;/b&gt;" style="text;html=1;align=center;verticalAlign=middle;resizable=0;points=[];autosize=1;strokeColor=none;fillColor=none;fontSize=18;" vertex="1" parent="1">
          <mxGeometry x="835" y="1345" width="50" height="30" as="geometry" />
        </mxCell>
        <mxCell id="254oFtnbG1OvKKi7Jezg-99" value="&lt;span style=&quot;font-size: 18px;&quot;&gt;&lt;b&gt;&lt;i&gt;磁盘&lt;/i&gt;&lt;/b&gt;&lt;/span&gt;" style="rounded=1;whiteSpace=wrap;html=1;fillColor=#f5f5f5;strokeColor=#666666;sketch=1;fontColor=#333333;" vertex="1" parent="1">
          <mxGeometry x="1025" y="1340" width="80" height="40" as="geometry" />
        </mxCell>
        <mxCell id="254oFtnbG1OvKKi7Jezg-100" value="" style="edgeStyle=orthogonalEdgeStyle;rounded=0;orthogonalLoop=1;jettySize=auto;html=1;fontSize=18;entryX=0.547;entryY=0.983;entryDx=0;entryDy=0;entryPerimeter=0;endArrow=none;endFill=0;startArrow=classic;startFill=1;" edge="1" parent="1" source="254oFtnbG1OvKKi7Jezg-101" target="254oFtnbG1OvKKi7Jezg-95">
          <mxGeometry relative="1" as="geometry" />
        </mxCell>
        <mxCell id="254oFtnbG1OvKKi7Jezg-117" style="edgeStyle=orthogonalEdgeStyle;rounded=0;orthogonalLoop=1;jettySize=auto;html=1;entryX=0.875;entryY=0.5;entryDx=0;entryDy=0;entryPerimeter=0;fontSize=14;fontColor=#FF3333;startArrow=none;startFill=0;endArrow=classic;endFill=1;" edge="1" parent="1" source="254oFtnbG1OvKKi7Jezg-101" target="254oFtnbG1OvKKi7Jezg-106">
          <mxGeometry relative="1" as="geometry">
            <Array as="points">
              <mxPoint x="1170" y="1440" />
            </Array>
          </mxGeometry>
        </mxCell>
        <mxCell id="254oFtnbG1OvKKi7Jezg-101" value="&lt;span style=&quot;font-size: 18px;&quot;&gt;&lt;b&gt;&lt;i&gt;网卡&lt;/i&gt;&lt;/b&gt;&lt;/span&gt;" style="rounded=1;whiteSpace=wrap;html=1;fillColor=#f5f5f5;strokeColor=#666666;sketch=1;fontColor=#333333;" vertex="1" parent="1">
          <mxGeometry x="1125" y="1340" width="80" height="40" as="geometry" />
        </mxCell>
        <mxCell id="254oFtnbG1OvKKi7Jezg-102" value="&lt;span style=&quot;font-size: 18px;&quot;&gt;&lt;b&gt;&lt;i&gt;...&lt;/i&gt;&lt;/b&gt;&lt;/span&gt;" style="rounded=1;whiteSpace=wrap;html=1;fillColor=#f5f5f5;strokeColor=#666666;sketch=1;fontColor=#333333;" vertex="1" parent="1">
          <mxGeometry x="1235" y="1340" width="80" height="40" as="geometry" />
        </mxCell>
        <mxCell id="254oFtnbG1OvKKi7Jezg-104" value="&lt;b&gt;&lt;i&gt;&lt;font style=&quot;font-size: 14px;&quot;&gt;数据经过网卡发送到网络&lt;/font&gt;&lt;/i&gt;&lt;/b&gt;" style="text;html=1;align=center;verticalAlign=middle;resizable=0;points=[];autosize=1;strokeColor=none;fillColor=none;fontSize=18;" vertex="1" parent="1">
          <mxGeometry x="1080" y="1400" width="170" height="30" as="geometry" />
        </mxCell>
        <mxCell id="254oFtnbG1OvKKi7Jezg-106" value="&lt;b&gt;&lt;i&gt;Network&lt;/i&gt;&lt;/b&gt;" style="ellipse;shape=cloud;whiteSpace=wrap;html=1;shadow=0;dashed=1;sketch=0;fontSize=14;fillColor=#F8F0EC;" vertex="1" parent="1">
          <mxGeometry x="895" y="1400" width="120" height="80" as="geometry" />
        </mxCell>
        <mxCell id="254oFtnbG1OvKKi7Jezg-108" value="" style="endArrow=classic;html=1;rounded=0;fontSize=18;entryX=0.161;entryY=0.067;entryDx=0;entryDy=0;entryPerimeter=0;" edge="1" parent="1" target="254oFtnbG1OvKKi7Jezg-95">
          <mxGeometry width="50" height="50" relative="1" as="geometry">
            <mxPoint x="1001" y="1119.9999999999998" as="sourcePoint" />
            <mxPoint x="1000.5" y="1229.9999999999998" as="targetPoint" />
          </mxGeometry>
        </mxCell>
        <mxCell id="254oFtnbG1OvKKi7Jezg-110" style="edgeStyle=orthogonalEdgeStyle;rounded=0;orthogonalLoop=1;jettySize=auto;html=1;entryX=0;entryY=0.5;entryDx=0;entryDy=0;fontSize=14;exitX=0;exitY=0.5;exitDx=0;exitDy=0;" edge="1" parent="1" source="254oFtnbG1OvKKi7Jezg-111" target="254oFtnbG1OvKKi7Jezg-94">
          <mxGeometry relative="1" as="geometry">
            <Array as="points">
              <mxPoint x="1125" y="1210" />
              <mxPoint x="1125" y="1155" />
            </Array>
          </mxGeometry>
        </mxCell>
        <mxCell id="254oFtnbG1OvKKi7Jezg-111" value="&lt;span style=&quot;font-size: 18px;&quot;&gt;&lt;b&gt;&lt;i&gt;Network Stack&lt;/i&gt;&lt;/b&gt;&lt;/span&gt;" style="rounded=1;whiteSpace=wrap;html=1;fillColor=#F8F0EC;strokeColor=#b85450;sketch=0;" vertex="1" parent="1">
          <mxGeometry x="1180" y="1190" width="140" height="40" as="geometry" />
        </mxCell>
        <mxCell id="254oFtnbG1OvKKi7Jezg-112" value="&lt;span style=&quot;font-size: 14px;&quot;&gt;&lt;i&gt;&lt;font color=&quot;#ff3333&quot;&gt;3.将数据写入网卡&lt;/font&gt;&lt;/i&gt;&lt;/span&gt;" style="text;html=1;align=center;verticalAlign=middle;resizable=0;points=[];autosize=1;strokeColor=none;fillColor=none;fontSize=18;" vertex="1" parent="1">
          <mxGeometry x="1065" y="1300" width="130" height="30" as="geometry" />
        </mxCell>
        <mxCell id="254oFtnbG1OvKKi7Jezg-113" value="&lt;font color=&quot;#ff3333&quot;&gt;&lt;span style=&quot;font-size: 14px;&quot;&gt;&lt;i&gt;2.将缓冲区中数据&lt;br&gt;写入设备&lt;/i&gt;&lt;/span&gt;&lt;/font&gt;" style="text;html=1;align=center;verticalAlign=middle;resizable=0;points=[];autosize=1;strokeColor=none;fillColor=none;fontSize=18;" vertex="1" parent="1">
          <mxGeometry x="995" y="1160" width="130" height="50" as="geometry" />
        </mxCell>
        <mxCell id="254oFtnbG1OvKKi7Jezg-114" value="&lt;span style=&quot;font-size: 14px;&quot;&gt;&lt;i&gt;&lt;font color=&quot;#ff3333&quot;&gt;1.将用户缓冲区中的数据拷贝到内核空间缓冲区&lt;/font&gt;&lt;/i&gt;&lt;/span&gt;" style="text;html=1;align=center;verticalAlign=middle;resizable=0;points=[];autosize=1;strokeColor=none;fillColor=none;fontSize=18;" vertex="1" parent="1">
          <mxGeometry x="1115" y="1045" width="310" height="30" as="geometry" />
        </mxCell>
        <mxCell id="254oFtnbG1OvKKi7Jezg-118" value="" style="rounded=0;whiteSpace=wrap;html=1;sketch=0;fontSize=18;dashed=1;fillColor=#d5e8d4;strokeColor=#82b366;shadow=0;" vertex="1" parent="1">
          <mxGeometry x="165" y="1940" width="590" height="100" as="geometry" />
        </mxCell>
        <mxCell id="254oFtnbG1OvKKi7Jezg-120" value="&lt;span style=&quot;font-size: 18px;&quot;&gt;&lt;b&gt;&lt;i&gt;用户空间缓冲区&lt;/i&gt;&lt;/b&gt;&lt;/span&gt;" style="rounded=1;whiteSpace=wrap;html=1;fillColor=#cdeb8b;strokeColor=#36393d;sketch=1;" vertex="1" parent="1">
          <mxGeometry x="270" y="1970" width="370" height="50" as="geometry" />
        </mxCell>
        <mxCell id="254oFtnbG1OvKKi7Jezg-121" value="&lt;b&gt;&lt;i&gt;用户空间&lt;/i&gt;&lt;/b&gt;" style="text;html=1;align=center;verticalAlign=middle;resizable=0;points=[];autosize=1;strokeColor=none;fillColor=none;fontSize=18;" vertex="1" parent="1">
          <mxGeometry x="165" y="1980" width="90" height="30" as="geometry" />
        </mxCell>
        <mxCell id="254oFtnbG1OvKKi7Jezg-122" value="" style="rounded=0;whiteSpace=wrap;html=1;sketch=0;fontSize=18;dashed=1;fillColor=#FFF3F0;strokeColor=#b85450;shadow=0;" vertex="1" parent="1">
          <mxGeometry x="165" y="2070" width="590" height="110" as="geometry" />
        </mxCell>
        <mxCell id="254oFtnbG1OvKKi7Jezg-124" value="&lt;b&gt;&lt;i&gt;内核空间&lt;/i&gt;&lt;/b&gt;" style="text;html=1;align=center;verticalAlign=middle;resizable=0;points=[];autosize=1;strokeColor=none;fillColor=none;fontSize=18;" vertex="1" parent="1">
          <mxGeometry x="160" y="2080" width="90" height="30" as="geometry" />
        </mxCell>
        <mxCell id="254oFtnbG1OvKKi7Jezg-126" value="&lt;span style=&quot;font-size: 18px;&quot;&gt;&lt;b&gt;&lt;i&gt;内核空间缓冲区&lt;/i&gt;&lt;/b&gt;&lt;/span&gt;" style="rounded=1;whiteSpace=wrap;html=1;fillColor=#F8F0EC;strokeColor=#b85450;sketch=0;" vertex="1" parent="1">
          <mxGeometry x="280" y="2100" width="350" height="50" as="geometry" />
        </mxCell>
        <mxCell id="254oFtnbG1OvKKi7Jezg-146" value="" style="edgeStyle=orthogonalEdgeStyle;rounded=0;orthogonalLoop=1;jettySize=auto;html=1;fontSize=14;fontColor=#FF3333;startArrow=none;startFill=0;endArrow=classic;endFill=1;" edge="1" parent="1" source="254oFtnbG1OvKKi7Jezg-128">
          <mxGeometry relative="1" as="geometry">
            <mxPoint x="460" y="2150" as="targetPoint" />
          </mxGeometry>
        </mxCell>
        <mxCell id="254oFtnbG1OvKKi7Jezg-128" value="" style="rounded=0;whiteSpace=wrap;html=1;sketch=0;fontSize=18;dashed=1;fillColor=#f5f5f5;strokeColor=#666666;shadow=0;fontColor=#333333;" vertex="1" parent="1">
          <mxGeometry x="165" y="2220" width="590" height="60" as="geometry" />
        </mxCell>
        <mxCell id="254oFtnbG1OvKKi7Jezg-130" value="&lt;b&gt;&lt;i&gt;硬件设备&lt;/i&gt;&lt;/b&gt;" style="text;html=1;align=center;verticalAlign=middle;resizable=0;points=[];autosize=1;strokeColor=none;fillColor=none;fontSize=18;" vertex="1" parent="1">
          <mxGeometry x="400" y="2235" width="90" height="30" as="geometry" />
        </mxCell>
        <mxCell id="254oFtnbG1OvKKi7Jezg-144" value="" style="endArrow=classic;html=1;rounded=0;fontSize=18;" edge="1" parent="1">
          <mxGeometry width="50" height="50" relative="1" as="geometry">
            <mxPoint x="331" y="2020" as="sourcePoint" />
            <mxPoint x="330" y="2100" as="targetPoint" />
          </mxGeometry>
        </mxCell>
        <mxCell id="254oFtnbG1OvKKi7Jezg-145" value="&lt;i style=&quot;&quot;&gt;&lt;font color=&quot;#ff3333&quot; style=&quot;font-size: 14px;&quot;&gt;1.读数据，read&lt;br&gt;等待数据就绪&lt;br&gt;&lt;/font&gt;&lt;/i&gt;" style="text;html=1;align=center;verticalAlign=middle;resizable=0;points=[];autosize=1;strokeColor=none;fillColor=none;fontSize=18;" vertex="1" parent="1">
          <mxGeometry x="265" y="2026" width="110" height="50" as="geometry" />
        </mxCell>
        <mxCell id="254oFtnbG1OvKKi7Jezg-147" value="&lt;i style=&quot;&quot;&gt;&lt;font color=&quot;#ff3333&quot; style=&quot;font-size: 14px;&quot;&gt;准备数据&lt;br&gt;&lt;/font&gt;&lt;/i&gt;" style="text;html=1;align=center;verticalAlign=middle;resizable=0;points=[];autosize=1;strokeColor=none;fillColor=none;fontSize=18;" vertex="1" parent="1">
          <mxGeometry x="385" y="2190" width="70" height="30" as="geometry" />
        </mxCell>
        <mxCell id="254oFtnbG1OvKKi7Jezg-149" value="" style="edgeStyle=orthogonalEdgeStyle;rounded=0;orthogonalLoop=1;jettySize=auto;html=1;fontSize=14;fontColor=#FF3333;startArrow=none;startFill=0;endArrow=classic;endFill=1;" edge="1" parent="1">
          <mxGeometry relative="1" as="geometry">
            <mxPoint x="560" y="2100" as="sourcePoint" />
            <mxPoint x="560" y="2020" as="targetPoint" />
          </mxGeometry>
        </mxCell>
        <mxCell id="254oFtnbG1OvKKi7Jezg-150" value="&lt;i style=&quot;&quot;&gt;&lt;font color=&quot;#ff3333&quot; style=&quot;font-size: 14px;&quot;&gt;2.读取数据&lt;br&gt;&lt;/font&gt;&lt;/i&gt;" style="text;html=1;align=center;verticalAlign=middle;resizable=0;points=[];autosize=1;strokeColor=none;fillColor=none;fontSize=18;" vertex="1" parent="1">
          <mxGeometry x="560" y="2036" width="80" height="30" as="geometry" />
        </mxCell>
      </root>
    </mxGraphModel>
  </diagram>
</mxfile>
